<svg width="68" height="68" xmlns="http://www.w3.org/2000/svg">
 <!-- Created with Method Draw - http://github.com/duopixel/Method-Draw/ -->
 <g>
  <title>background</title>
 </g>
 <g>
  <title>Layer 1</title>
  <g id="svg_16">
   <path fill="#666666" id="svg_15" d="m10.546875,68.115231l47.0215,0c6.9336,0 10.5469,-3.66211 10.5469,-10.49805l0,-47.0703c0,-6.8848 -3.6133,-10.5469 -10.5469,-10.5469l-47.0215,0c-6.9336,0 -10.54688,3.6133 -10.54688,10.5469l0,47.0703c0,6.9336 3.61328,10.49805 10.54688,10.49805zm23.4375,-15.03905c-1.0742,0 -1.7578,-0.8301 -1.7578,-1.9043l0,-15.332l-15.5274,0c-1.0742,0 -1.9531,-0.7325 -1.9531,-1.7578c0,-1.1231 0.8301,-1.8555 1.9531,-1.8555l15.5274,0l0,-15.5762c0,-1.123 0.6836,-1.9531 1.7578,-1.9531c1.1719,0 1.8555,0.8301 1.8555,1.9531l0,15.5762l15.5761,0c1.1231,0 1.9532,0.7324 1.9532,1.8555c0,1.0253 -0.8789,1.7578 -1.9532,1.7578l-15.5761,0l0,15.332c0,1.123 -0.6836,1.9043 -1.8555,1.9043z"/>
  </g>
 </g>
</svg>