<svg width="67" height="84" xmlns="http://www.w3.org/2000/svg">
 <!--glyph: "uni100202.medium", point size: 100.000000, font version: "Version 15.0d7e11", template writer version: "5"-->

 <g>
  <title>background</title>
  <rect fill="none" id="canvas_background" height="86" width="69" y="-1" x="-1"/>
 </g>
 <g>
  <title>Layer 1</title>
  <g id="Symbols">
   <g transform="matrix(1,0,0,1,517.792,696) " id="Ultralight-S">
    <path fill="#5a91f6" id="svg_72" d="m-485.389933,-641.382133c0.6347,0 1.123,-0.4883 1.123,-1.0742l0,-44.5313l-0.0488,-5.2734l4.8828,4.9316l7.7148,7.7637c0.1953,0.2441 0.5371,0.3906 0.8301,0.3906c0.4883,0 0.9766,-0.4883 0.9766,-1.0254c0,-0.293 -0.0977,-0.5371 -0.3418,-0.7324l-14.3555,-14.4043c-0.2441,-0.1953 -0.4883,-0.293 -0.7812,-0.293c-0.2442,0 -0.5372,0.0977 -0.7813,0.293l-14.4043,14.4043c-0.1953,0.1953 -0.293,0.4394 -0.293,0.7324c0,0.5371 0.4395,1.0254 0.9766,1.0254c0.2441,0 0.5859,-0.1465 0.8301,-0.3906l7.7148,-7.7637l4.9317,-4.9805l-0.0489,5.3223l0,44.5313c0,0.5859 0.4883,1.0742 1.0743,1.0742zm-22.168,28.56442l44.2871,0c6.543,0 10.0098,-3.564448 10.0098,-9.96093l0,-40.77149c0,-6.4453 -3.4668,-9.9609 -10.0098,-9.9609l-11.3281,0l0,2.1972l11.2304,0c4.9805,0 7.9102,2.6856 7.9102,7.8614l0,40.5273c0,5.22461 -2.9297,7.91016 -7.9102,7.91016l-44.0918,0c-5.2246,0 -7.9101,-2.68555 -7.9101,-7.91016l0,-40.5273c0,-5.1758 2.6855,-7.8614 7.9101,-7.8614l11.3282,0l0,-2.1972l-11.4258,0c-6.543,0 -10.00978,3.4179 -10.00978,9.9609l0,40.77149c0,6.494138 3.46678,9.96093 10.00978,9.96093z"/>
   </g>
  </g>
 </g>
</svg>